# File created by Blade
# Date/Time:  Tue Jan 27 18:05:41 2015
# Frame Rate: 120.000 fps
#------------------------------------------------------
:FULLY-SPECIFIED
:DEGREES
2192
root -1.423105 31.925010 -6.452306 7.373582 24.634104 5.198127
Spine -6.265609 -3.156826 -4.541751
Head -7.953139 -35.327455 2.903663
LeftShoulder -10.309285 15.503949 7.050988
LeftArm 24.993867 42.068584 -70.263721
LeftForeArm -3.714829 -0.000000 15.643273
LeftHand -11.446381 -0.000000 -6.465586
LeftHandThumb1 -26.253704 0.000000 33.147579
RightShoulder -4.201497 24.948039 -42.258155
RightArm 67.589675 64.696577 90.336282
RightForeArm 38.680111 -0.000000 116.664767
RightHand 1.189749 0.000000 16.433575
RightHandThumb1 -24.326973 -0.000000 -32.862282
LeftUpLeg -3.951461 -10.683952 -0.801282
LeftLeg 0.670314 -0.000000 -0.000000
LeftFoot -12.282615 10.429169 -23.918889
LeftToeBase 8.768539 -0.000000 -0.000000
RightUpLeg 3.794604 -13.952003 -3.647687
RightLeg -3.690839 -0.000000 0.000000
RightFoot -17.708774 -21.130256 12.309617
RightToeBase 5.460046 -0.000000 -0.000000
2193
root -1.418402 31.925639 -6.451511 7.404584 24.472905 5.176962
Spine -6.267846 -3.276452 -4.531658
Head -8.142247 -35.754065 3.083863
LeftShoulder -10.344557 15.535470 7.026166
LeftArm 24.901825 41.986874 -70.304009
LeftForeArm -3.688510 0.000000 15.643796
LeftHand -11.455328 -0.000000 -6.555227
LeftHandThumb1 -26.253704 0.000000 33.147579
RightShoulder -4.350829 25.116498 -42.272355
RightArm 65.737415 64.929355 88.137283
RightForeArm 38.253614 -0.000000 116.478597
RightHand 0.932103 -0.000000 15.770224
RightHandThumb1 -24.326973 -0.000000 -32.862282
LeftUpLeg -3.961393 -10.611556 -0.803694
LeftLeg 0.650101 -0.000000 -0.000000
LeftFoot -12.316538 10.507332 -23.879569
LeftToeBase 8.768732 -0.000000 -0.000000
RightUpLeg 3.737473 -13.907583 -3.645041
RightLeg -3.709672 -0.000000 0.000000
RightFoot -17.653846 -21.031906 12.284684
RightToeBase 5.416892 -0.000000 -0.000000
2194
root -1.424589 31.926999 -6.461572 7.462747 24.313660 5.143105
Spine -6.246913 -3.441206 -4.527816
Head -8.359457 -36.037903 3.283570
LeftShoulder -10.422087 15.551119 7.001394
LeftArm 24.917353 41.961863 -70.241993
LeftForeArm -3.754430 -0.000000 15.634535
LeftHand -11.423695 -0.000000 -6.413624
LeftHandThumb1 -26.253704 0.000000 33.147579
RightShoulder -4.571668 25.118099 -42.270027
RightArm 64.630069 65.016669 86.701553
RightForeArm 37.784630 -0.000000 116.227656
RightHand 0.701687 -0.000000 15.237926
RightHandThumb1 -24.326973 -0.000000 -32.862282
LeftUpLeg -4.058952 -10.538659 -0.767722
LeftLeg 0.684517 -0.000000 -0.000000
LeftFoot -12.368829 10.567791 -23.940024
LeftToeBase 8.761384 -0.000000 -0.000000
RightUpLeg 3.598026 -13.807980 -3.601940
RightLeg -3.682136 -0.000000 0.000000
RightFoot -17.626694 -21.000119 12.256765
RightToeBase 5.452241 -0.000000 -0.000000
2195
root -1.422882 31.927351 -6.462031 7.474646 24.135495 5.124274
Spine -6.210275 -3.564096 -4.535641
Head -8.529169 -36.411368 3.444679
LeftShoulder -10.458911 15.522157 7.004166
LeftArm 24.839852 42.010828 -70.241320
LeftForeArm -3.888190 -0.000000 15.633442
LeftHand -11.324868 -0.000000 -6.138288
LeftHandThumb1 -26.253704 0.000000 33.147579
RightShoulder -4.717495 25.031864 -42.257563
RightArm 63.784041 65.146049 85.526883
RightForeArm 37.522314 -0.000000 115.993837
RightHand 0.506626 -0.000000 14.936556
RightHandThumb1 -24.326973 -0.000000 -32.862282
LeftUpLeg -4.061296 -10.447822 -0.771747
LeftLeg 0.685203 -0.000000 -0.000000
LeftFoot -12.411995 10.636851 -23.935157
LeftToeBase 8.779616 -0.000000 -0.000000
RightUpLeg 3.548777 -13.756209 -3.602364
RightLeg -3.687237 -0.000000 0.000000
RightFoot -17.579929 -20.900315 12.208228
RightToeBase 5.442517 -0.000000 -0.000000
2196
root -1.422458 31.928317 -6.464434 7.502850 23.957409 5.103248
Spine -6.209016 -3.661028 -4.540983
Head -8.679413 -36.782159 3.621233
LeftShoulder -10.443916 15.580920 7.004042
LeftArm 24.803480 41.922295 -70.244322
LeftForeArm -3.810465 -0.000000 15.653270
LeftHand -11.206782 -0.000000 -5.774101
LeftHandThumb1 -26.253704 0.000000 33.147579
RightShoulder -4.852407 24.883396 -42.265775
RightArm 63.080990 65.267828 84.548458
RightForeArm 37.276608 -0.000000 115.751059
RightHand 0.321462 -0.000000 14.379867
RightHandThumb1 -24.326973 -0.000000 -32.862282
LeftUpLeg -4.085413 -10.376587 -0.773262
LeftLeg 0.684835 -0.000000 -0.000000
LeftFoot -12.412878 10.755305 -23.806283
LeftToeBase 8.595765 -0.000000 -0.000000
RightUpLeg 3.476681 -13.713588 -3.594421
RightLeg -3.691570 -0.000000 0.000000
RightFoot -17.534556 -20.800853 12.164429
RightToeBase 5.443477 -0.000000 -0.000000
2197
root -1.424635 31.929299 -6.470002 7.546260 23.774081 5.090081
Spine -6.202607 -3.779291 -4.559939
Head -8.844483 -37.085954 3.810015
LeftShoulder -10.435227 15.580794 7.022973
LeftArm 24.752887 41.914114 -70.243003
LeftForeArm -3.727389 -0.000000 15.644583
LeftHand -11.393743 -0.000000 -6.370127
LeftHandThumb1 -26.253704 0.000000 33.147579
RightShoulder -5.001805 24.715921 -42.288657
RightArm 62.623707 65.342174 83.881786
RightForeArm 37.285984 0.000000 115.495410
RightHand 0.229586 -0.000000 14.315572
RightHandThumb1 -24.326973 -0.000000 -32.862282
LeftUpLeg -4.145667 -10.284002 -0.774539
LeftLeg 0.716239 -0.000000 -0.000000
LeftFoot -12.502150 10.859131 -23.865449
LeftToeBase 8.693634 -0.000000 -0.000000
RightUpLeg 3.376498 -13.700210 -3.587686
RightLeg -3.681567 -0.000000 0.000000
RightFoot -17.487342 -20.661875 12.108783
RightToeBase 5.451331 -0.000000 -0.000000
2198
root -1.423530 31.929511 -6.469424 7.537690 23.557198 5.054628
Spine -6.182425 -3.857885 -4.560482
Head -8.921836 -37.378314 3.948444
LeftShoulder -10.443584 15.636854 7.026807
LeftArm 24.780160 41.890632 -70.200537
LeftForeArm -3.784951 -0.000000 15.620094
LeftHand -11.239546 -0.000000 -5.783817
LeftHandThumb1 -26.253704 0.000000 33.147579
RightShoulder -5.092514 24.541605 -42.298991
RightArm 62.241239 65.424574 83.285872
RightForeArm 37.249991 -0.000000 115.227676
RightHand 0.152443 -0.000000 13.860174
RightHandThumb1 -24.326973 -0.000000 -32.862282
LeftUpLeg -4.125058 -10.190514 -0.766170
LeftLeg 0.707798 -0.000000 -0.000000
LeftFoot -12.579045 10.942056 -23.912626
LeftToeBase 8.754593 -0.000000 -0.000000
RightUpLeg 3.350062 -13.661449 -3.582161
RightLeg -3.716565 -0.000000 0.000000
RightFoot -17.422349 -20.496404 12.090802
RightToeBase 5.453154 -0.000000 -0.000000
2199
root -1.423783 31.929495 -6.471747 7.544948 23.352019 5.026410
Spine -6.164767 -3.980688 -4.562626
Head -9.000988 -37.670731 4.100043
LeftShoulder -10.463954 15.682951 7.026047
LeftArm 24.791629 41.854813 -70.156599
LeftForeArm -3.746457 0.000000 15.620016
LeftHand -11.114547 -0.000000 -5.710583
LeftHandThumb1 -26.253704 0.000000 33.147579
RightShoulder -5.147167 24.435291 -42.297236
RightArm 61.834288 65.496742 82.683798
RightForeArm 37.330883 -0.000000 114.975619
RightHand 0.141354 0.000000 13.739595
RightHandThumb1 -24.326973 -0.000000 -32.862282
LeftUpLeg -4.135877 -10.115344 -0.758526
LeftLeg 0.726093 -0.000000 -0.000000
LeftFoot -12.657239 11.037085 -23.950848
LeftToeBase 8.727927 -0.000000 -0.000000
RightUpLeg 3.301759 -13.653941 -3.574417
RightLeg -3.744823 -0.000000 0.000000
RightFoot -17.334774 -20.345838 11.993383
RightToeBase 5.453148 -0.000000 -0.000000
2200
root -1.425377 31.927503 -6.471822 7.524912 23.118276 4.965245
Spine -6.143181 -4.065060 -4.532964
Head -9.070904 -37.935522 4.226527
LeftShoulder -10.484329 15.662800 7.054921
LeftArm 24.772030 41.913853 -70.138267
LeftForeArm -3.822643 -0.000000 15.573661
LeftHand -10.993216 -0.000000 -5.743381
LeftHandThumb1 -26.253704 0.000000 33.147579
RightShoulder -5.196500 24.261438 -42.323912
RightArm 61.706718 65.573313 82.400193
RightForeArm 37.423807 0.000000 114.736028
RightHand -0.011378 -0.000000 13.556271
RightHandThumb1 -24.326973 -0.000000 -32.862282
LeftUpLeg -4.118324 -10.033099 -0.720609
LeftLeg 0.729122 -0.000000 -0.000000
LeftFoot -12.778306 11.120790 -23.987688
LeftToeBase 8.797288 -0.000000 -0.000000
RightUpLeg 3.258838 -13.574776 -3.534733
RightLeg -3.762402 -0.000000 0.000000
RightFoot -17.271021 -20.243189 11.912627
RightToeBase 5.428920 -0.000000 -0.000000
2201
root -1.422704 31.928628 -6.472570 7.533200 22.883702 4.965108
Spine -6.140918 -4.150610 -4.568573
Head -9.086569 -38.170345 4.367859
LeftShoulder -10.475978 15.665110 7.077603
LeftArm 24.733370 41.924813 -70.128585
LeftForeArm -3.709592 0.000000 15.566405
LeftHand -11.299183 -0.000000 -6.612273
LeftHandThumb1 -26.253704 0.000000 33.147579
RightShoulder -5.206938 24.158833 -42.308544
RightArm 61.452383 65.634138 81.975317
RightForeArm 37.412419 -0.000000 114.522675
RightHand -0.051391 -0.000000 13.183564
RightHandThumb1 -24.326973 -0.000000 -32.862282
LeftUpLeg -4.104143 -9.933621 -0.754714
LeftLeg 0.728230 -0.000000 -0.000000
LeftFoot -12.824326 11.275445 -23.962656
LeftToeBase 8.743402 -0.000000 -0.000000
RightUpLeg 3.220209 -13.526740 -3.566764
RightLeg -3.783006 -0.000000 0.000000
RightFoot -17.223716 -20.055092 11.904928
RightToeBase 5.476520 -0.000000 -0.000000
2202
root -1.423161 31.928315 -6.473476 7.535048 22.640543 4.925429
Spine -6.152242 -4.204843 -4.568903
Head -9.102834 -38.392004 4.502118
LeftShoulder -10.467122 15.654728 7.111107
LeftArm 24.761198 42.002651 -70.074453
LeftForeArm -3.790673 -0.000000 15.510489
LeftHand -11.096778 -0.000000 -5.996534
LeftHandThumb1 -26.253704 0.000000 33.147579
RightShoulder -5.202177 24.114374 -42.286531
RightArm 61.127150 65.698344 81.487308
RightForeArm 37.324076 -0.000000 114.331881
RightHand -0.180342 -0.000000 13.050362
RightHandThumb1 -24.326973 -0.000000 -32.862282
LeftUpLeg -4.109917 -9.785183 -0.747908
LeftLeg 0.756699 -0.000000 -0.000000
LeftFoot -12.852025 11.332631 -23.862040
LeftToeBase 8.555759 -0.000000 -0.000000
RightUpLeg 3.154651 -13.473842 -3.550957
RightLeg -3.783971 -0.000000 0.000000
RightFoot -17.144354 -19.922253 11.793633
RightToeBase 5.456247 -0.000000 -0.000000
2203
root -1.420749 31.928779 -6.474222 7.537586 22.382123 4.893873
Spine -6.164117 -4.256795 -4.562195
Head -9.098136 -38.585535 4.592858
LeftShoulder -10.497659 15.623233 7.118599
LeftArm 24.814128 42.118657 -70.003540
LeftForeArm -3.769478 -0.000000 15.401406
LeftHand -11.229475 -0.000000 -6.319731
LeftHandThumb1 -26.253704 0.000000 33.147579
RightShoulder -5.224051 24.166867 -42.277642
RightArm 60.752100 65.671952 80.946701
RightForeArm 37.201747 -0.000000 114.131217
RightHand -0.275962 -0.000000 12.848358
RightHandThumb1 -24.326973 -0.000000 -32.862282
LeftUpLeg -4.094125 -9.686645 -0.750620
LeftLeg 0.740620 -0.000000 -0.000000
LeftFoot -12.988177 11.498802 -23.987223
LeftToeBase 8.706686 -0.000000 -0.000000
RightUpLeg 3.091187 -13.418591 -3.549421
RightLeg -3.784576 -0.000000 0.000000
RightFoot -17.073086 -19.756758 11.736545
RightToeBase 5.413906 -0.000000 -0.000000
2204
root -1.419028 31.928671 -6.476103 7.543557 22.114887 4.858143
Spine -6.172651 -4.281251 -4.551101
Head -9.122927 -38.801796 4.704238
LeftShoulder -10.515653 15.624689 7.122108
LeftArm 24.862080 42.129616 -69.948598
LeftForeArm -3.799937 -0.000000 15.357025
LeftHand -10.904175 -0.000000 -6.432005
LeftHandThumb1 -26.253704 0.000000 33.147579
RightShoulder -5.250577 24.222022 -42.306353
RightArm 60.429277 65.679704 80.516982
RightForeArm 37.022570 0.000000 113.953580
RightHand -0.529947 -0.000000 12.911017
RightHandThumb1 -24.326973 -0.000000 -32.862282
LeftUpLeg -4.095346 -9.585613 -0.748972
LeftLeg 0.764889 -0.000000 -0.000000
LeftFoot -13.059572 11.607489 -23.901578
LeftToeBase 8.614172 -0.000000 -0.000000
RightUpLeg 3.017915 -13.332294 -3.543495
RightLeg -3.779871 -0.000000 0.000000
RightFoot -17.013753 -19.604282 11.675834
RightToeBase 5.386982 -0.000000 -0.000000
